<svg width="57" height="57" viewBox="0 0 57 57" fill="none" xmlns="http://www.w3.org/2000/svg">
<path d="M27.063 54.1504C41.9747 54.1504 54.063 42.0621 54.063 27.1504C54.063 12.2387 41.9747 0.150391 27.063 0.150391C12.1513 0.150391 0.0630074 12.2387 0.0630074 27.1504C0.0630074 42.0621 12.1513 54.1504 27.063 54.1504Z" fill="#D7EAF2"/>
<path d="M13.6255 34.7437V19.6812C13.0943 19.8218 12.563 19.9937 12.063 20.1499V39.1656C16.2571 38.0064 20.7138 38.2366 24.7661 39.8218C22.0123 37.0374 18.2605 35.468 14.3443 35.4624C13.9508 35.4542 13.6338 35.1372 13.6255 34.7437Z" fill="#078638"/>
<path d="M15.0943 15.5718L15.0474 34.103C19.6469 34.3412 23.9365 36.4945 26.8755 40.0405V22.3687C24.1923 18.423 19.8531 15.9196 15.0943 15.5718Z" fill="#078638"/>
<path d="M41.5005 19.7124V34.7593C41.4923 35.1527 41.1753 35.4697 40.7818 35.478C36.8743 35.4815 33.1314 37.0518 30.3911 39.8374V39.853C34.4302 38.2621 38.8756 38.0209 43.063 39.1655V20.1811C42.5631 20.0093 42.0474 19.8374 41.5005 19.7124Z" fill="#078638"/>
<path d="M40.0943 15.5718C35.3164 15.885 30.9536 18.3953 28.2818 22.3687V40.0405C31.2172 36.4984 35.5003 34.3455 40.0943 34.103V15.5718Z" fill="#078638"/>
</svg>
